<?xml version="1.0" encoding="UTF-8" standalone="no"?>
<svg
   version="1.0"
   width="500.000000pt"
   height="500.000000pt"
   viewBox="0 0 500.000000 500.000000"
   preserveAspectRatio="xMidYMid meet"
   id="svg46"
   sodipodi:docname="1-removebg-preview.svg"
   inkscape:version="1.2 (dc2aedaf03, 2022-05-15)"
   inkscape:export-filename="1-removebg-preview.png"
   inkscape:export-xdpi="96"
   inkscape:export-ydpi="96"
   xmlns:inkscape="http://www.inkscape.org/namespaces/inkscape"
   xmlns:sodipodi="http://sodipodi.sourceforge.net/DTD/sodipodi-0.dtd"
   xmlns="http://www.w3.org/2000/svg"
   xmlns:svg="http://www.w3.org/2000/svg">
  <defs
     id="defs50" />
  <sodipodi:namedview
     id="namedview48"
     pagecolor="#ffffff"
     bordercolor="#000000"
     borderopacity="0.25"
     inkscape:showpageshadow="2"
     inkscape:pageopacity="0.0"
     inkscape:pagecheckerboard="0"
     inkscape:deskcolor="#d1d1d1"
     inkscape:document-units="pt"
     showgrid="false"
     inkscape:zoom="1"
     inkscape:cx="597.5"
     inkscape:cy="195"
     inkscape:window-width="2400"
     inkscape:window-height="1261"
     inkscape:window-x="2391"
     inkscape:window-y="-9"
     inkscape:window-maximized="1"
     inkscape:current-layer="g44" />
  <g
     transform="matrix(0.1732734,0,0,-0.15014004,-202.63945,577.8491)"
     fill="#000000"
     stroke="none"
     id="g44">
    <path
       d="m 2644,3777 c -5,-13 -2,-158 6,-329 0,-13 40,-9 46,5 2,7 -2,82 -10,166 -14,147 -27,196 -42,158 z"
       id="path2" />
    <path
       d="m 3233,3633 c -61,-66 -120,-171 -110,-196 10,-27 20,-20 56,39 18,30 60,84 92,119 40,42 57,68 53,79 -11,29 -37,17 -91,-41 z"
       id="path4" />
    <path
       d="m 2062,3383 c 7,-38 242,-207 278,-201 8,2 16,11 18,20 2,11 -19,29 -70,59 -40,23 -101,64 -135,91 -65,50 -97,61 -91,31 z"
       id="path6" />
    <path
       d="m 2822,3349 c -198,-25 -337,-110 -404,-247 -29,-59 -33,-76 -33,-147 0,-119 15,-142 197,-297 88,-74 126,-178 73,-198 -34,-13 -22,-38 23,-47 21,-4 84,-8 142,-8 h 105 l 6,50 c 15,130 54,192 174,275 159,108 229,207 228,320 0,145 -136,273 -318,300 -79,11 -104,11 -193,-1 z m 188,-60 c 80,-13 135,-36 184,-79 58,-51 79,-101 74,-176 -6,-92 -45,-144 -180,-240 -59,-42 -119,-92 -134,-112 -39,-50 -73,-140 -74,-189 v -43 h -64 c -35,0 -76,3 -92,6 -28,5 -29,7 -29,67 0,83 -33,139 -129,217 -40,33 -82,78 -94,99 -48,84 -36,192 29,288 84,122 311,194 509,162 z"
       id="path8" />
    <path
       d="m 2823,2944 c -13,-20 -18,-47 -18,-92 0,-49 -2,-60 -10,-46 -16,28 -44,54 -59,54 -30,0 -66,-41 -66,-75 0,-37 37,-75 73,-75 19,0 19,-5 14,-77 -4,-43 -8,-87 -9,-98 -2,-15 3,-19 26,-20 28,0 30,3 64,112 32,103 37,111 63,117 59,12 64,93 5,89 -24,-2 -25,0 -20,40 5,43 -10,87 -33,94 -6,2 -20,-8 -30,-23 z m -69,-160 c 4,-9 4,-19 2,-22 -10,-9 -36,8 -36,23 0,20 26,19 34,-1 z m 161,6 c -3,-5 -11,-10 -16,-10 -6,0 -7,5 -4,10 3,6 11,10 16,10 6,0 7,-4 4,-10 z m -89,-81 -14,-34 -1,32 c -1,17 5,33 12,36 19,7 19,2 3,-34 z"
       id="path10" />
    <path
       d="m 3594,3116 c -74,-24 -167,-70 -186,-93 -8,-10 -8,-17 -1,-24 7,-7 30,-1 73,21 34,17 98,40 143,51 94,24 113,35 96,55 -16,19 -42,17 -125,-10 z"
       id="path12" />
    <path
       d="m 2080,2921 c -101,-29 -140,-46 -140,-61 0,-20 23,-20 84,-1 35,11 93,25 128,31 116,20 118,21 118,41 0,16 -7,19 -47,18 -27,0 -91,-13 -143,-28 z"
       id="path14" />
    <path
       d="m 2238,2582 c -107,-111 -149,-182 -115,-195 20,-7 29,1 77,73 24,36 58,83 77,104 18,22 33,45 33,52 0,29 -20,20 -72,-34 z"
       id="path16" />
    <path
       d="m 3284,2599 c -9,-15 3,-24 130,-113 114,-80 150,-93 144,-54 -2,16 -37,43 -128,100 -68,43 -127,78 -131,78 -4,0 -11,-5 -15,-11 z"
       id="path18" />
    <path
       d="m 2672,2348 c -76,-17 -44,-32 89,-44 68,-6 130,-9 137,-6 22,8 13,42 -14,52 -31,12 -154,11 -212,-2 z"
       id="path20" />
    <path
       d="m 2658,2263 c -27,-7 -22,-33 6,-33 42,0 56,-10 50,-36 -4,-16 1,-30 20,-48 42,-43 97,-30 122,29 16,38 6,78 -21,89 -18,7 -150,6 -177,-1 z m 142,-63 c 0,-5 -8,-10 -17,-10 -15,0 -16,2 -3,10 19,12 20,12 20,0 z"
       id="path22" />
    <path
       d="m 1873,1979 c -24,-9 -28,-35 -39,-260 -7,-143 -1,-156 61,-146 47,8 144,52 173,80 124,116 53,291 -132,326 -23,4 -52,4 -63,0 z m 157,-148 c 16,-31 12,-66 -11,-95 -20,-25 -68,-56 -87,-56 -9,0 -6,169 4,198 5,17 79,-20 94,-47 z"
       id="path24" />
    <path
       d="m 2748,1947 c -10,-10 -19,-58 -26,-144 -18,-196 -19,-253 -2,-263 20,-13 33,-12 54,3 14,10 20,37 28,133 5,65 10,155 11,199 2,79 2,80 -24,83 -15,2 -33,-3 -41,-11 z"
       id="path26" />
    <path
       d="m 3091,1936 c -6,-7 -14,-55 -17,-107 -11,-154 -41,-199 -94,-140 -32,35 -51,39 -75,15 -41,-42 42,-144 117,-144 37,0 86,36 108,79 37,73 52,249 24,289 -17,25 -46,29 -63,8 z"
       id="path28" />
    <path
       d="m 2218,1918 c -17,-32 -17,-231 1,-291 25,-85 92,-129 150,-97 13,6 30,3 60,-12 37,-18 47,-19 81,-9 64,19 101,86 119,215 15,108 6,174 -26,189 -46,21 -58,1 -59,-99 -1,-96 -23,-193 -50,-215 -14,-11 -18,-10 -30,6 -8,10 -14,31 -14,46 0,27 -22,59 -41,59 -24,0 -49,-23 -49,-45 0,-34 -10,-55 -26,-55 -27,0 -38,53 -38,183 -1,102 -4,130 -16,137 -25,16 -49,11 -62,-12 z"
       id="path30" />
    <path
       d="m 3476,1108 c -7,-13 -17,-48 -20,-78 -8,-61 -44,-110 -81,-110 -45,0 -56,40 -33,124 14,52 1,76 -38,76 -30,0 -52,-40 -60,-112 -11,-103 42,-178 127,-178 22,0 39,-5 39,-10 0,-12 -49,-60 -60,-60 -14,0 -19,-30 -10,-55 15,-40 55,-33 105,18 50,50 79,121 94,231 16,116 14,153 -8,166 -29,15 -39,13 -55,-12 z"
       id="path32" />
    <path
       d="m 2253,1099 c -32,-20 -73,-90 -73,-123 0,-34 30,-75 79,-104 53,-33 68,-60 51,-92 -8,-15 -21,-20 -48,-20 -21,0 -43,5 -49,11 -6,6 -23,9 -39,7 -40,-4 -45,-44 -9,-78 23,-22 36,-25 97,-25 67,0 71,1 103,37 69,74 49,169 -46,227 -27,17 -49,37 -49,45 0,8 12,24 28,35 46,35 52,41 52,56 0,19 -28,45 -48,45 -9,0 -31,-10 -49,-21 z"
       id="path34" />
    <path
       d="m 2502,1085 c -16,-12 -22,-25 -20,-43 3,-25 7,-27 51,-30 l 48,-3 -5,-42 c -11,-86 -17,-243 -11,-260 8,-20 57,-23 73,-4 6,7 13,60 17,117 3,58 8,124 11,148 5,42 6,43 34,37 46,-10 70,2 70,34 0,45 -21,54 -138,59 -89,3 -111,1 -130,-13 z"
       id="path36" />
    <path
       d="m 1990,1075 c -11,-14 -39,-259 -40,-353 0,-36 4,-44 25,-54 20,-9 28,-8 44,6 15,13 20,37 26,114 3,53 11,137 16,186 10,97 4,116 -36,116 -12,0 -28,-7 -35,-15 z"
       id="path38" />
    <path
       d="m 2973,1069 c -41,-12 -88,-70 -102,-125 -6,-24 -16,-103 -22,-175 -11,-141 -7,-159 36,-159 35,0 45,21 52,109 3,44 10,81 15,81 6,0 44,-34 85,-75 42,-41 80,-75 85,-75 23,0 48,23 48,43 0,13 -25,50 -62,91 -51,57 -59,70 -46,77 28,16 58,75 58,113 0,28 -7,45 -29,67 -16,16 -36,29 -44,29 -9,0 -21,2 -29,4 -7,2 -27,0 -45,-5 z m 57,-94 c 0,-16 -46,-65 -61,-65 -18,0 -8,31 16,55 28,29 45,32 45,10 z"
       id="path40" />
    <path
       d="m 1585,1061 c -72,-31 -135,-199 -135,-360 0,-59 11,-81 42,-81 28,0 45,39 52,120 3,42 15,106 26,142 33,109 68,114 58,7 -6,-60 7,-82 47,-77 24,3 30,10 46,57 9,29 26,63 37,74 l 21,20 7,-28 c 4,-15 4,-85 0,-155 -5,-106 -3,-130 9,-140 19,-16 61,-5 70,17 14,37 18,271 5,317 -22,80 -78,111 -137,76 -32,-19 -37,-19 -52,-6 -22,20 -70,28 -96,17 z"
       id="path42" />
    <path
       style="fill:#ffcc00;stroke:#000000;stroke-width:0.5"
       d="m 368,279.40603 c -5.23491,-0.27028 -11.3667,-1.1907 -12.77133,-1.91706 -0.74662,-0.38609 -1.52826,-1.10406 -1.73697,-1.59548 -0.20872,-0.49142 -0.54717,-4.60599 -0.75213,-9.14349 -0.44109,-9.76537 -1.51234,-14.41115 -4.64209,-20.13185 -4.33831,-7.92974 -10.12345,-13.6405 -25.34068,-25.01483 -5.84958,-4.37235 -10.93521,-8.71299 -15.31835,-13.07436 -5.80012,-5.7713 -6.80135,-7.02216 -8.62793,-10.77896 -3.15932,-6.49794 -4.19041,-11.05953 -4.18167,-18.5 0.009,-7.87092 1.46972,-13.82074 5.33887,-21.75 6.80872,-13.95353 16.17892,-23.0453 32.04552,-31.09333 24.8356,-12.59737 60.82804,-18.33029 90.48676,-14.41283 23.24009,3.06966 38.07668,9.14535 50.21352,20.56281 4.96831,4.67384 8.23897,9.51618 10.22224,15.13447 1.41443,4.00687 1.52167,4.79951 1.53008,11.30888 0.01,7.53223 -0.55104,11.05577 -2.58619,16.25 -4.30498,10.98738 -13.44612,19.47312 -37.56986,34.87615 C 414.51401,229.15078 409.45401,233.78469 401.86145,249 397.02298,258.69618 394.75,267.18713 394.75,275.56549 V 279.75 l -11.875,-0.0945 c -6.53125,-0.052 -13.225,-0.16425 -14.875,-0.24943 z m 7.79531,-13.29708 c 2.52874,-1.70412 3.75499,-4.45541 11.74455,-26.35101 3.0149,-8.26239 6.53874,-15.38755 8.21014,-16.6008 0.6875,-0.49905 2.8916,-1.36097 4.898,-1.91538 6.75859,-1.86754 10.31628,-5.57166 10.31628,-10.74086 0,-4.89393 -3.02932,-7.2509 -9.31928,-7.2509 -5.55444,0 -5.69907,-0.18861 -5.02941,-6.55913 0.68072,-6.47581 0.15062,-10.62609 -1.88993,-14.79687 -2.26729,-4.63421 -4.98717,-6.38188 -7.99385,-5.13647 -0.82432,0.34145 -2.61476,1.84188 -3.97874,3.3343 -3.7278,4.0788 -4.50749,7.05334 -4.9958,19.05913 -0.21589,5.30803 -0.55025,9.80803 -0.74302,10 -0.19278,0.19197 -1.05029,-0.55096 -1.90558,-1.65096 -4.47838,-5.75967 -10.05095,-9.73704 -13.65381,-9.74531 -4.58593,-0.0105 -11.49585,5.17736 -13.83441,10.38669 -3.84118,8.55655 3.74923,18.75664 14.8653,19.97619 3.00988,0.33022 3.57654,0.55308 4.15078,1.63243 0.82728,1.55496 0.54634,7.11221 -1.18496,23.43966 -1.52382,14.3707 -1.74083,13.82843 5.59949,13.99225 2.42317,0.0541 3.3995,-0.16673 4.74425,-1.07296 z"
       id="path751"
       transform="matrix(4.3284197,0,0,-4.9953364,1169.4781,3848.7342)" />
    <path
       style="fill:#ffcc00;stroke:#000000;stroke-width:0.0883883"
       d="m 379.49269,234.31014 c -10e-4,-0.23901 -0.0582,-1.86114 -0.12616,-3.60472 -0.13242,-3.39989 -0.0993,-4.21845 0.2229,-5.51098 0.54291,-2.17784 1.50888,-3.50855 2.84141,-3.9143 3.52119,-1.07218 3.73038,-0.2279 1.20743,4.87324 -0.48969,0.99009 -1.60722,3.31161 -2.48341,5.15893 -0.87618,1.84731 -1.60801,3.37533 -1.62627,3.39558 -0.0183,0.0203 -0.0344,-0.15873 -0.0359,-0.39775 z"
       id="path753"
       transform="matrix(4.3284197,0,0,-4.9953364,1169.4781,3848.7342)" />
    <path
       style="fill:#ffcc00;stroke:#000000;stroke-width:0.0883883"
       d="m 363.79833,217.88429 c -2.28502,-0.5211 -4.70682,-2.34538 -5.34823,-4.02868 -0.26708,-0.70094 -0.20751,-1.64132 0.14501,-2.28901 0.52473,-0.9641 1.41147,-1.4418 2.69226,-1.45036 2.88944,-0.0193 5.29161,2.51046 5.45865,5.74862 0.0618,1.19874 -0.0788,1.60744 -0.6479,1.88294 -0.50319,0.24359 -1.55616,0.30608 -2.29979,0.13649 z"
       id="path755"
       transform="matrix(4.3284197,0,0,-4.9953364,1169.4781,3848.7342)" />
    <path
       style="fill:#ffcc00;stroke:#000000;stroke-width:0.0883883"
       d="m 399.20597,213.85699 c -0.57775,-0.10696 -0.88388,-0.43369 -0.88388,-0.94334 0,-0.3194 0.48117,-1.18423 0.86753,-1.55925 1.22693,-1.19092 3.56041,-1.75753 4.22286,-1.02538 0.24839,0.27452 0.2075,0.83113 -0.10295,1.40153 -0.64158,1.17879 -2.90021,2.3492 -4.10356,2.12644 z"
       id="path757"
       transform="matrix(4.3284197,0,0,-4.9953364,1169.4781,3848.7342)" />
    <path
       style="fill:#ff0000;stroke:#000000;stroke-width:0.0441942"
       d="m 371.58461,332.0113 c -1.03845,-0.0559 -1.51651,-0.18304 -1.56118,-0.41502 -0.0337,-0.175 0.33855,-0.50782 1.06329,-0.95068 0.45305,-0.27683 2.3348,-1.29128 3.1637,-1.70554 1.28003,-0.63973 1.83123,-0.77715 2.12514,-0.52984 0.1851,0.15575 0.26026,0.43973 0.29611,1.1188 0.0247,0.4681 0.0171,0.60163 -0.0451,0.78888 -0.23457,0.70624 -1.39043,1.38323 -2.76594,1.62002 -0.48389,0.0833 -1.48992,0.11574 -2.276,0.0734 z"
       id="path761"
       transform="matrix(4.3284197,0,0,-4.9953364,1169.4781,3848.7342)" />
  </g>
</svg>
